<?xml version="1.0" standalone="no"?>
<!DOCTYPE svg PUBLIC "-//W3C//DTD SVG 20010904//EN"
 "http://www.w3.org/TR/2001/REC-SVG-20010904/DTD/svg10.dtd">
<svg version="1.0" xmlns="http://www.w3.org/2000/svg"
 width="450.000000pt" height="405.000000pt" viewBox="0 0 450.000000 405.000000"
 preserveAspectRatio="xMidYMid meet">

<g transform="translate(0.000000,405.000000) scale(0.100000,-0.100000)"
fill="#000000" stroke="none">
<path d="M1318 3590 c-103 -16 -182 -41 -277 -86 -113 -53 -195 -111 -278
-195 -276 -277 -354 -670 -217 -1088 175 -534 685 -1087 1522 -1649 l182 -123
183 123 c835 561 1348 1117 1521 1648 95 293 87 571 -23 815 -115 253 -362
459 -639 532 -137 36 -330 38 -447 5 -92 -27 -205 -81 -296 -142 -64 -44 -211
-184 -267 -255 l-32 -40 -32 40 c-56 71 -203 211 -267 255 -90 60 -204 115
-291 140 -86 24 -254 34 -342 20z m1252 -872 c-72 -233 -133 -431 -136 -440
-5 -17 10 -18 220 -18 124 0 226 -2 226 -5 0 -9 -1023 -1246 -1026 -1242 -3 3
280 873 302 932 5 13 -22 15 -209 17 l-215 3 481 592 c264 326 483 591 485
589 2 -3 -55 -195 -128 -428z"/>
</g>
</svg>
