<?xml version="1.0" encoding="UTF-8" standalone="no"?>
<!-- Generator: Adobe Illustrator 19.0.0, SVG Export Plug-In . SVG Version: 6.00 Build 0)  -->

<!-- License: CC0. Made by SVG Repo: https://www.svgrepo.com/svg/206321/escalator-stair -->

<svg
   version="1.1"
   id="Layer_1"
   x="0px"
   y="0px"
   viewBox="0 0 262290.47 262290.47"
   xml:space="preserve"
   sodipodi:docname="Escalator.svg"
   inkscape:version="1.2.1 (9c6d41e410, 2022-07-14)"
   inkscape:export-filename="Escala.svg"
   inkscape:export-xdpi="96"
   inkscape:export-ydpi="96"
   width="262290.47"
   height="262290.47"
   xmlns:inkscape="http://www.inkscape.org/namespaces/inkscape"
   xmlns:sodipodi="http://sodipodi.sourceforge.net/DTD/sodipodi-0.dtd"
   xmlns="http://www.w3.org/2000/svg"
   xmlns:svg="http://www.w3.org/2000/svg"><defs
   id="defs58" /><sodipodi:namedview
   id="namedview56"
   pagecolor="#ffffff"
   bordercolor="#000000"
   borderopacity="0.25"
   inkscape:showpageshadow="2"
   inkscape:pageopacity="0.0"
   inkscape:pagecheckerboard="0"
   inkscape:deskcolor="#d1d1d1"
   showgrid="false"
   inkscape:zoom="1.5386327"
   inkscape:cx="134.85999"
   inkscape:cy="256.0715"
   inkscape:window-width="1920"
   inkscape:window-height="986"
   inkscape:window-x="-11"
   inkscape:window-y="-11"
   inkscape:window-maximized="1"
   inkscape:current-layer="Layer_1" />
<g
   transform="matrix(0.5,0,0,0.5,128.5355,128.536)"
   id="g53">
	<path
   style="fill:#fd9808"
   d="m 229.471,63.071 c 0,-28.16 -23.04,-51.2 -51.2,-51.2 -28.16,0 -51.2,23.04 -51.2,51.2 0,28.16 23.04,51.2 51.2,51.2 28.16,0 51.2,-23.04 51.2,-51.2"
   id="path31" />
	<path
   style="fill:#ffdd09"
   d="m 203.871,63.071 c 0,-28.16 -17.067,-51.2 -38.4,-51.2 -21.333,0 -38.4,23.04 -38.4,51.2 0,28.16 17.067,51.2 38.4,51.2 21.333,0 38.4,-23.04 38.4,-51.2"
   id="path33" />
	<path
   style="fill:#fd9808"
   d="m 229.471,226.911 v -61.44 c 0,-28.16 -23.04,-51.2 -51.2,-51.2 -28.16,0 -51.2,23.04 -51.2,51.2 v 182.613 z"
   id="path35" />
	<path
   style="fill:#ffdd09"
   d="m 203.871,226.911 v -61.44 c 0,-28.16 -17.067,-51.2 -38.4,-51.2 -21.333,0 -38.4,23.04 -38.4,51.2 v 182.613 z"
   id="path37" />
	<path
   style="fill:#fd9808"
   d="m 440.245,105.738 h -94.72 c -8.533,0 -17.067,4.267 -22.187,10.24 L 106.591,372.831 c -3.413,3.413 -7.68,5.973 -12.8,5.973 H 69.898 c -32.427,0 -61.44,25.6 -62.293,58.027 -0.853,34.133 26.453,61.44 59.733,61.44 h 80.213 c 8.533,0 17.067,-4.267 22.187,-10.24 l 212.48,-256 c 3.413,-4.267 9.387,-6.827 14.507,-6.827 h 46.08 c 33.28,0 60.587,-28.16 59.733,-61.44 -0.853,-32.426 -29.867,-58.026 -62.293,-58.026"
   id="path39" />
	<path
   style="fill:#ffdd09"
   d="m 418.911,105.738 h -87.893 c -8.533,0 -2.56,4.267 -7.68,10.24 l -215.04,256.853 c -3.413,3.413 -7.68,5.973 -11.947,5.973 H 74.165 c -30.72,0 -57.173,25.6 -58.027,58.027 -0.853,34.133 23.893,61.44 55.467,61.44 h 74.24 c 8.533,0 16.213,-4.267 21.333,-10.24 l 197.973,-256 c 3.413,-4.267 8.533,-6.827 13.653,-6.827 h 41.813 c 31.573,0 56.32,-28.16 55.467,-61.44 10e-4,-32.426 -26.453,-58.026 -57.173,-58.026"
   id="path41" />
	<path
   d="M 147.551,506.805 H 67.338 c -18.773,0 -35.84,-7.68 -48.64,-20.48 -13.653,-13.653 -20.48,-31.573 -19.627,-49.493 0.853,-36.693 32.427,-66.56 70.827,-66.56 h 23.893 c 2.56,0 5.12,-0.853 5.973,-2.56 L 316.511,110.859 c 6.827,-8.533 17.92,-13.653 29.013,-13.653 h 94.72 c 37.547,0 69.973,29.867 70.827,66.56 0.853,18.773 -5.973,36.693 -19.627,49.493 -12.8,12.8 -29.867,20.48 -48.64,20.48 h -45.227 c -3.413,0 -5.973,1.707 -8.533,3.413 l -212.48,256 c -6.826,8.533 -17.919,13.653 -29.013,13.653 z M 69.898,387.338 c -29.013,0 -52.907,22.187 -53.76,49.493 0,13.653 5.12,27.307 14.507,37.547 9.387,10.24 23.04,15.36 36.693,15.36 h 80.213 c 5.973,0 11.947,-2.56 16.213,-7.68 l 212.48,-256 c 5.12,-5.973 12.8,-10.24 21.333,-10.24 h 45.227 c 13.653,0 27.307,-5.12 36.693,-15.36 9.387,-10.24 14.507,-23.04 14.507,-37.547 -0.853,-27.307 -24.747,-49.493 -53.76,-49.493 h -94.72 c -5.973,0 -11.947,2.56 -16.213,7.68 L 113.418,377.951 c -5.12,5.973 -11.947,9.387 -19.627,9.387 z"
   id="path43" />
	<path
   d="m 178.271,122.805 c -33.28,0 -59.733,-26.453 -59.733,-59.733 0,-33.28 26.453,-59.733 59.733,-59.733 33.28,0 59.733,26.453 59.733,59.733 0,33.28 -26.453,59.733 -59.733,59.733 z m 0,-102.4 c -23.893,0 -42.667,18.773 -42.667,42.667 0,23.894 18.773,42.667 42.667,42.667 23.894,0 42.667,-18.773 42.667,-42.667 0,-23.894 -18.773,-42.667 -42.667,-42.667 z"
   id="path45" />
	<path
   d="m 127.071,356.618 c -0.853,0 -1.707,0 -2.56,-0.853 -3.413,-0.853 -5.973,-4.267 -5.973,-7.68 V 165.471 c 0,-33.28 26.453,-59.733 59.733,-59.733 33.28,0 59.733,26.453 59.733,59.733 v 61.44 c 0,1.707 -0.853,4.267 -1.707,5.12 l -102.4,121.173 c -1.706,2.561 -4.266,3.414 -6.826,3.414 z m 51.2,-233.813 c -23.893,0 -42.667,18.773 -42.667,42.667 v 159.573 l 85.333,-100.693 v -58.88 c 10e-4,-23.894 -18.772,-42.667 -42.666,-42.667 z m 51.2,104.106 z"
   id="path47" />
	<path
   d="m 417.205,506.805 c -5.12,0 -8.533,-3.413 -8.533,-8.533 V 327.605 c 0,-5.12 3.413,-8.533 8.533,-8.533 5.12,0 8.533,3.413 8.533,8.533 v 170.667 c 0,5.119 -3.413,8.533 -8.533,8.533 z"
   id="path49" />
	<path
   d="m 417.205,506.805 c -2.56,0 -4.267,-0.853 -5.973,-2.56 l -59.733,-59.733 c -3.413,-3.413 -3.413,-8.533 0,-11.947 3.413,-3.413 8.533,-3.413 11.947,0 l 53.76,53.76 53.76,-53.76 c 3.413,-3.413 8.533,-3.413 11.947,0 3.413,3.413 3.413,8.533 0,11.947 l -59.733,59.733 c -1.709,1.706 -3.415,2.56 -5.975,2.56 z"
   id="path51" />
</g>
</svg>
