<?xml version="1.0" standalone="no"?>
<!DOCTYPE svg PUBLIC "-//W3C//DTD SVG 20010904//EN"
 "http://www.w3.org/TR/2001/REC-SVG-20010904/DTD/svg10.dtd">
<svg version="1.0" xmlns="http://www.w3.org/2000/svg"
 width="1600.000000pt" height="1600.000000pt" viewBox="0 0 1600.000000 1600.000000"
 preserveAspectRatio="xMidYMid meet">

<g transform="translate(0.000000,1600.000000) scale(0.100000,-0.100000)"
fill="#000000" stroke="none">
<path d="M3028 15325 c-9 -27 -442 -1543 -963 -3367 l-948 -3318 -558 0 -559
0 0 -640 0 -640 1042 2 1042 3 308 1075 c169 591 310 1086 314 1100 l7 25 6
-25 c4 -14 286 -1698 627 -3742 340 -2044 622 -3714 625 -3710 4 4 454 1422
999 3152 546 1730 996 3148 999 3152 4 4 58 -225 122 -510 l114 -517 963 -3
c529 -1 962 2 962 6 0 5 -11 37 -25 72 -69 175 -99 346 -99 560 0 214 30 385
99 560 14 35 25 67 25 72 0 4 -202 8 -448 8 l-449 0 -518 2333 c-285 1282
-521 2339 -524 2349 -3 9 -407 -1256 -915 -2865 -500 -1585 -913 -2888 -917
-2896 -4 -10 -9 -5 -13 15 -3 16 -296 1773 -651 3904 -355 2131 -647 3880
-649 3885 -2 6 -10 -12 -18 -40z"/>
<path d="M12829 12944 c-233 -390 -243 -407 -224 -421 11 -8 83 -55 160 -106
1637 -1074 2492 -3050 2225 -5142 -199 -1557 -1050 -2922 -2330 -3736 -63 -40
-117 -74 -119 -76 -2 -1 466 -795 485 -822 8 -10 359 222 530 351 369 276 752
644 1045 1003 899 1098 1399 2540 1399 4035 0 2058 -931 3925 -2525 5065 -149
107 -378 255 -393 255 -5 0 -119 -183 -253 -406z"/>
<path d="M11565 10732 c-132 -206 -248 -388 -257 -404 l-17 -28 62 -41 c187
-126 442 -364 577 -539 254 -330 426 -696 514 -1090 156 -703 53 -1438 -283
-2025 -124 -216 -303 -442 -477 -603 -86 -80 -289 -237 -354 -274 -26 -15 -38
-28 -35 -37 5 -13 449 -747 480 -793 10 -15 21 -11 104 43 562 361 1018 907
1298 1554 327 754 388 1666 167 2495 -141 531 -404 1030 -762 1448 -182 213
-422 428 -662 593 -52 36 -100 68 -105 72 -6 3 -116 -160 -250 -371z"/>
<path d="M9410 8939 c-113 -24 -239 -75 -335 -138 -90 -58 -218 -186 -276
-276 -97 -150 -159 -355 -159 -525 0 -170 62 -375 159 -525 58 -90 186 -218
276 -276 150 -97 355 -159 525 -159 170 0 375 62 525 159 90 58 218 186 276
276 97 150 159 355 159 525 0 170 -62 375 -159 525 -58 90 -186 218 -276 276
-212 138 -474 188 -715 138z"/>
</g>
</svg>
